<?xml version="1.0" encoding="UTF-8"?>
<svg width="24px" height="23px" viewBox="0 0 24 23" version="1.1" xmlns="http://www.w3.org/2000/svg" xmlns:xlink="http://www.w3.org/1999/xlink">
    <title>04-profile/005-profile</title>
    <defs>
        <path d="M23.4198917,22.2784455 C23.5702028,22.4958989 23.5026575,22.7855926 23.269025,22.9254946 C23.0353925,23.0653966 22.7241448,23.0025288 22.5738337,22.7850754 C20.1399023,19.2639342 16.1370614,16.9363653 11.990113,16.9363653 C7.85612285,16.9363653 3.86368537,19.2515907 1.42529102,22.7578179 C1.27433373,22.9748831 0.962900191,23.0369486 0.729684744,22.8964452 C0.496469296,22.7559417 0.429785886,22.4660751 0.580743179,22.2490099 C3.19388163,18.4915138 7.49031577,16 11.990113,16 C16.5037927,16 20.8114165,18.5047938 23.4198917,22.2784455 Z M12,0 C15.8659932,0 19,3.13400675 19,7 C19,10.8659932 15.8659932,14 12,14 C8.13400675,14 5,10.8659932 5,7 C5,3.13400675 8.13400675,0 12,0 Z M12,1 C8.6862915,1 6,3.6862915 6,7 C6,10.3137085 8.6862915,13 12,13 C15.3137085,13 18,10.3137085 18,7 C18,3.6862915 15.3137085,1 12,1 Z" id="path-1"></path>
    </defs>
    <g id="Redlines" stroke="none" stroke-width="1" fill="none" fill-rule="evenodd">
        <g id="Header-/-desktop-/-Partners-/-F5-ATT-Access" transform="translate(-1265.000000, -28.000000)">
            <g id="nav-header-/-pre-login-/-default-1440">
                <g id="nav-header-/-pre-login-/-default">
                    <g id="header-/-components-/-Desktop-/-profile" transform="translate(1254.000000, 27.000000)">
                        <g id="04-profile/005-profile" transform="translate(11.000000, 1.000000)">
                            <mask id="mask-2" fill="white">
                                <use xlink:href="#path-1"></use>
                            </mask>
                            <use id="icon" fill="#056DAE" xlink:href="#path-1"></use>
                            <g id="icon-color" mask="url(#mask-2)" fill="#666666">
                                <g transform="translate(-1.000000, -1.000000)" id="Color-/-Dark-Gray">
                                    <rect x="0" y="0" width="26" height="26"></rect>
                                </g>
                            </g>
                        </g>
                    </g>
                </g>
            </g>
        </g>
    </g>
</svg>